<svg width="60" height="56" viewBox="0 0 60 56" fill="none" xmlns="http://www.w3.org/2000/svg">
<g filter="url(#filter0_d_210_38)">
<path d="M54.6144 41.3725L42.5045 30.2112C45.2583 26.4432 46.617 21.7353 45.8896 16.7187C44.6493 8.1859 37.0617 1.24198 27.7947 0.160628C14.0166 -1.44625 2.43076 9.2321 4.1743 21.9311C5.34785 30.476 12.8829 37.4749 22.1418 38.6125C27.5846 39.2828 32.6936 38.031 36.7808 35.4926L48.8907 46.6539C50.4709 48.1104 53.0335 48.1104 54.6138 46.6539C56.1926 45.1956 56.1926 42.8272 54.6144 41.3725ZM12.0023 19.3948C12.0023 12.8136 17.8114 7.45953 24.9518 7.45953C32.0923 7.45953 37.9014 12.8136 37.9014 19.3948C37.9014 25.976 32.0923 31.3301 24.9518 31.3301C17.8114 31.3301 12.0023 25.9779 12.0023 19.3948Z" fill="#969090"/>
<path d="M42.1008 29.9162L41.8375 30.2764L42.1657 30.5788L54.2755 41.7402C55.6384 42.9964 55.6393 45.0256 54.2749 46.2863C52.8861 47.5663 50.6183 47.5663 49.2295 46.2863L37.1197 35.1249L36.8401 34.8672L36.517 35.0678C32.526 37.5465 27.5316 38.7725 22.2029 38.1163L22.2028 38.1162C13.1436 37.0032 5.80897 30.1588 4.66965 21.863C2.97797 9.54168 14.2272 -0.9183 27.7367 0.657258C36.8044 1.71535 44.1905 8.50655 45.3948 16.7905C46.1022 21.6695 44.7824 26.247 42.1008 29.9162ZM24.9518 6.95953C17.5744 6.95953 11.5023 12.4999 11.5023 19.3948C11.5023 26.2917 17.5745 31.8301 24.9518 31.8301C32.3293 31.8301 38.4014 26.2898 38.4014 19.3948C38.4014 12.4999 32.3293 6.95953 24.9518 6.95953Z" stroke="#CBC8C8"/>
</g>
<defs>
<filter id="filter0_d_210_38" x="0" y="0" width="59.7979" height="55.7463" filterUnits="userSpaceOnUse" color-interpolation-filters="sRGB">
<feFlood flood-opacity="0" result="BackgroundImageFix"/>
<feColorMatrix in="SourceAlpha" type="matrix" values="0 0 0 0 0 0 0 0 0 0 0 0 0 0 0 0 0 0 127 0" result="hardAlpha"/>
<feOffset dy="4"/>
<feGaussianBlur stdDeviation="2"/>
<feComposite in2="hardAlpha" operator="out"/>
<feColorMatrix type="matrix" values="0 0 0 0 0 0 0 0 0 0 0 0 0 0 0 0 0 0 0.25 0"/>
<feBlend mode="normal" in2="BackgroundImageFix" result="effect1_dropShadow_210_38"/>
<feBlend mode="normal" in="SourceGraphic" in2="effect1_dropShadow_210_38" result="shape"/>
</filter>
</defs>
</svg>
