<svg width="36" height="36" viewBox="0 0 36 36" fill="none" xmlns="http://www.w3.org/2000/svg">
<path d="M0 12.2301V11.7532C0 6.00601 3.55219 1.10403 8.39531 0.160138C11.5383 -0.463914 14.8641 0.75788 17.1562 3.44238L18 4.42738L18.7805 3.44238C21.1359 0.75788 24.3984 -0.463914 27.6047 0.160138C32.4492 1.10403 36 6.00601 36 11.7532V12.2301C36 15.6422 34.7906 18.9064 32.6531 21.2332L19.9477 35.1038C19.4203 35.6793 18.7242 36 18 36C17.2758 36 16.5797 35.6793 16.0523 35.1038L3.34617 21.2332C1.21148 18.9064 0 15.6422 0 12.2301Z" fill="#C94F65"/>
</svg>
